<svg width="167" height="36" viewBox="0 0 167 36" fill="none" xmlns="http://www.w3.org/2000/svg">
<path d="M53.151 12.204C54.205 12.204 55.1173 12.3797 55.888 12.731C56.67 13.0823 57.2707 13.581 57.69 14.227C58.1093 14.873 58.319 15.638 58.319 16.522C58.319 17.3947 58.1093 18.1597 57.69 18.817C57.2707 19.463 56.67 19.9617 55.888 20.313C55.1173 20.653 54.205 20.823 53.151 20.823H50.754V24.104H48V12.204H53.151ZM52.998 18.579C53.8253 18.579 54.4543 18.4033 54.885 18.052C55.3157 17.6893 55.531 17.1793 55.531 16.522C55.531 15.8533 55.3157 15.3433 54.885 14.992C54.4543 14.6293 53.8253 14.448 52.998 14.448H50.754V18.579H52.998Z" fill="#323C50"/>
<path d="M68.3672 24.104L66.0722 20.789H65.9362H63.5392V24.104H60.7852V12.204H65.9362C66.9902 12.204 67.9025 12.3797 68.6732 12.731C69.4552 13.0823 70.0558 13.581 70.4752 14.227C70.8945 14.873 71.1042 15.638 71.1042 16.522C71.1042 17.406 70.8888 18.171 70.4582 18.817C70.0388 19.4517 69.4382 19.939 68.6562 20.279L71.3252 24.104H68.3672ZM68.3162 16.522C68.3162 15.8533 68.1008 15.3433 67.6702 14.992C67.2395 14.6293 66.6105 14.448 65.7832 14.448H63.5392V18.596H65.7832C66.6105 18.596 67.2395 18.4147 67.6702 18.052C68.1008 17.6893 68.3162 17.1793 68.3162 16.522Z" fill="#323C50"/>
<path d="M79.5491 24.308C78.3138 24.308 77.1975 24.0417 76.2001 23.509C75.2141 22.9763 74.4378 22.2453 73.8711 21.316C73.3158 20.3753 73.0381 19.3213 73.0381 18.154C73.0381 16.9867 73.3158 15.9383 73.8711 15.009C74.4378 14.0683 75.2141 13.3317 76.2001 12.799C77.1975 12.2663 78.3138 12 79.5491 12C80.7845 12 81.8951 12.2663 82.8811 12.799C83.8671 13.3317 84.6435 14.0683 85.2101 15.009C85.7768 15.9383 86.0601 16.9867 86.0601 18.154C86.0601 19.3213 85.7768 20.3753 85.2101 21.316C84.6435 22.2453 83.8671 22.9763 82.8811 23.509C81.8951 24.0417 80.7845 24.308 79.5491 24.308ZM79.5491 21.962C80.2518 21.962 80.8865 21.8033 81.4531 21.486C82.0198 21.1573 82.4618 20.704 82.7791 20.126C83.1078 19.548 83.2721 18.8907 83.2721 18.154C83.2721 17.4173 83.1078 16.76 82.7791 16.182C82.4618 15.604 82.0198 15.1563 81.4531 14.839C80.8865 14.5103 80.2518 14.346 79.5491 14.346C78.8465 14.346 78.2118 14.5103 77.6451 14.839C77.0785 15.1563 76.6308 15.604 76.3021 16.182C75.9848 16.76 75.8261 17.4173 75.8261 18.154C75.8261 18.8907 75.9848 19.548 76.3021 20.126C76.6308 20.704 77.0785 21.1573 77.6451 21.486C78.2118 21.8033 78.8465 21.962 79.5491 21.962Z" fill="#323C50"/>
<path d="M91.3839 14.414V17.559H96.8919V19.769H91.3839V24.104H88.6299V12.204H97.6229V14.414H91.3839Z" fill="#323C50"/>
<path d="M109.201 21.894V24.104H99.9873V12.204H108.98V14.414H102.724V16.998H108.249V19.14H102.724V21.894H109.201Z" fill="#323C50"/>
<path d="M115.803 24.308C114.862 24.308 113.95 24.1833 113.066 23.934C112.193 23.6733 111.49 23.339 110.958 22.931L111.893 20.857C112.403 21.231 113.009 21.5313 113.712 21.758C114.414 21.9847 115.117 22.098 115.82 22.098C116.602 22.098 117.18 21.9847 117.554 21.758C117.928 21.52 118.115 21.2083 118.115 20.823C118.115 20.5397 118.001 20.3073 117.775 20.126C117.559 19.9333 117.276 19.7803 116.925 19.667C116.585 19.5537 116.12 19.429 115.531 19.293C114.624 19.0777 113.882 18.8623 113.304 18.647C112.726 18.4317 112.227 18.086 111.808 17.61C111.4 17.134 111.196 16.4993 111.196 15.706C111.196 15.0147 111.383 14.3913 111.757 13.836C112.131 13.2693 112.692 12.8217 113.44 12.493C114.199 12.1643 115.123 12 116.211 12C116.97 12 117.712 12.0907 118.438 12.272C119.163 12.4533 119.798 12.714 120.342 13.054L119.492 15.145C118.392 14.5217 117.293 14.21 116.194 14.21C115.423 14.21 114.851 14.3347 114.477 14.584C114.114 14.8333 113.933 15.162 113.933 15.57C113.933 15.978 114.142 16.284 114.562 16.488C114.992 16.6807 115.644 16.8733 116.517 17.066C117.423 17.2813 118.166 17.4967 118.744 17.712C119.322 17.9273 119.815 18.2673 120.223 18.732C120.642 19.1967 120.852 19.8257 120.852 20.619C120.852 21.299 120.659 21.9223 120.274 22.489C119.9 23.0443 119.333 23.4863 118.574 23.815C117.814 24.1437 116.891 24.308 115.803 24.308Z" fill="#323C50"/>
<path d="M127.143 24.308C126.203 24.308 125.29 24.1833 124.406 23.934C123.534 23.6733 122.831 23.339 122.298 22.931L123.233 20.857C123.743 21.231 124.35 21.5313 125.052 21.758C125.755 21.9847 126.458 22.098 127.16 22.098C127.942 22.098 128.52 21.9847 128.894 21.758C129.268 21.52 129.455 21.2083 129.455 20.823C129.455 20.5397 129.342 20.3073 129.115 20.126C128.9 19.9333 128.617 19.7803 128.265 19.667C127.925 19.5537 127.461 19.429 126.871 19.293C125.965 19.0777 125.222 18.8623 124.644 18.647C124.066 18.4317 123.568 18.086 123.148 17.61C122.74 17.134 122.536 16.4993 122.536 15.706C122.536 15.0147 122.723 14.3913 123.097 13.836C123.471 13.2693 124.032 12.8217 124.78 12.493C125.54 12.1643 126.463 12 127.551 12C128.311 12 129.053 12.0907 129.778 12.272C130.504 12.4533 131.138 12.714 131.682 13.054L130.832 15.145C129.733 14.5217 128.634 14.21 127.534 14.21C126.764 14.21 126.191 14.3347 125.817 14.584C125.455 14.8333 125.273 15.162 125.273 15.57C125.273 15.978 125.483 16.284 125.902 16.488C126.333 16.6807 126.985 16.8733 127.857 17.066C128.764 17.2813 129.506 17.4967 130.084 17.712C130.662 17.9273 131.155 18.2673 131.563 18.732C131.983 19.1967 132.192 19.8257 132.192 20.619C132.192 21.299 132 21.9223 131.614 22.489C131.24 23.0443 130.674 23.4863 129.914 23.815C129.155 24.1437 128.231 24.308 127.143 24.308Z" fill="#323C50"/>
<path d="M134.574 12.204H137.328V24.104H134.574V12.204Z" fill="#323C50"/>
<path d="M146.415 24.308C145.18 24.308 144.064 24.0417 143.066 23.509C142.08 22.9763 141.304 22.2453 140.737 21.316C140.182 20.3753 139.904 19.3213 139.904 18.154C139.904 16.9867 140.182 15.9383 140.737 15.009C141.304 14.0683 142.08 13.3317 143.066 12.799C144.064 12.2663 145.18 12 146.415 12C147.651 12 148.761 12.2663 149.747 12.799C150.733 13.3317 151.51 14.0683 152.076 15.009C152.643 15.9383 152.926 16.9867 152.926 18.154C152.926 19.3213 152.643 20.3753 152.076 21.316C151.51 22.2453 150.733 22.9763 149.747 23.509C148.761 24.0417 147.651 24.308 146.415 24.308ZM146.415 21.962C147.118 21.962 147.753 21.8033 148.319 21.486C148.886 21.1573 149.328 20.704 149.645 20.126C149.974 19.548 150.138 18.8907 150.138 18.154C150.138 17.4173 149.974 16.76 149.645 16.182C149.328 15.604 148.886 15.1563 148.319 14.839C147.753 14.5103 147.118 14.346 146.415 14.346C145.713 14.346 145.078 14.5103 144.511 14.839C143.945 15.1563 143.497 15.604 143.168 16.182C142.851 16.76 142.692 17.4173 142.692 18.154C142.692 18.8907 142.851 19.548 143.168 20.126C143.497 20.704 143.945 21.1573 144.511 21.486C145.078 21.8033 145.713 21.962 146.415 21.962Z" fill="#323C50"/>
<path d="M166.41 12.204V24.104H164.149L158.216 16.879V24.104H155.496V12.204H157.774L163.69 19.429V12.204H166.41Z" fill="#323C50"/>
<path d="M36.1451 7.25391C35.4985 8.9118 34.5158 10.4644 33.1968 11.8065C31.3528 13.6829 28 15.9999 24 15.9999H21C16.8574 15.9999 14.2917 20.2839 14.2917 24.0204L25 23.9999C26.681 23.9999 28.3865 23.596 29.8348 22.9381C34.0503 21.0697 36.9985 16.7802 36.9985 11.8065C37.0244 10.2013 36.7141 8.67496 36.1451 7.25391Z" fill="url(#paint0_linear_232_10669)"/>
<path d="M25.2435 0H21.2866C20.459 0.526316 19.6832 1.15789 18.9849 1.86842C17.0452 3.84211 15.8297 6.26316 15.3125 8.78947H21.778H24.3642C26.3556 8.78947 28.0366 10.3947 28.1142 12.3421C28.14 13.3421 27.778 14.3158 27.1055 15.0263C26.5883 15.5526 25.5 16 24 16C28 16 31.0883 14.4737 33.3383 12.1579C34.6572 10.8158 35.64 9.26316 36.2865 7.60526C34.5538 3.1579 30.2348 0 25.2435 0Z" fill="url(#paint1_linear_232_10669)"/>
<path d="M13.1637 0H21.8016C20.974 0.526316 20.1982 1.15789 19.4999 1.86842C17.5603 3.84211 16.3706 6.23684 15.8534 8.76316L15.1292 11.9211L14.2758 15.7632L11.4827 28.1842L11.0689 30.0526L10.8362 31.0526C9.98271 33.9474 7.39652 36 4.13791 36H0L0.232757 34.9737L3.54309 20.2105L6.74997 5.94737L7.00859 4.78947C7.57755 3 8.79306 1.55263 10.3965 0.736842C11.1724 0.342105 12.1293 0.0789474 13.1637 0Z" fill="url(#paint2_linear_232_10669)"/>
<defs>
<linearGradient id="paint0_linear_232_10669" x1="14.2917" y1="24.0204" x2="30.3154" y2="2.31833" gradientUnits="userSpaceOnUse">
<stop stop-color="#50D7BE"/>
<stop offset="1" stop-color="#37AFF0"/>
</linearGradient>
<linearGradient id="paint1_linear_232_10669" x1="39.1341" y1="12.2143" x2="34.6336" y2="-3.84092" gradientUnits="userSpaceOnUse">
<stop stop-color="#5AB1A3"/>
<stop offset="0.1437" stop-color="#57A5B3"/>
<stop offset="0.5007" stop-color="#518BD4"/>
<stop offset="0.7971" stop-color="#4D7BE9"/>
<stop offset="0.9944" stop-color="#4C75F0"/>
</linearGradient>
<linearGradient id="paint2_linear_232_10669" x1="21.8016" y1="0" x2="-9.99315" y2="19.2549" gradientUnits="userSpaceOnUse">
<stop stop-color="#50D7BE"/>
<stop offset="1" stop-color="#37AFF0"/>
</linearGradient>
</defs>
</svg>
